# xmcd
#
# Track frame offsets:
#	150
#	16535
#	31941
#	43632
#	59700
#	75442
#	91641
#	105829
#	125656
#	143989
#
# Disc length: 2199 seconds
#
# Revision: 0
# Processed by: cddbd v1.4PL0 Copyright (c) Steve Scherf et al.
# Submitted via: dBpowerAMP V4.0
#
DISCID=6f08950a
DTITLE=John Michael Montgomery - Pictures
DYEAR=2002
DGENRE=Country
TTITLE0=Believe In Me
TTITLE1=Country Thang
TTITLE2=Four-Wheel Drive
TTITLE3=Got You To Thank For That
TTITLE4=I Wanna Be There
TTITLE5=It Goes Like This (Featuring Sixwire)
TTITLE6=Love And Alcohol
TTITLE7=Love Changes Everything
TTITLE8=Pictures
TTITLE9='Til Nothing Comes Between Us
EXTD=
EXTT0=
EXTT1=
EXTT2=
EXTT3=
EXTT4=
EXTT5=
EXTT6=
EXTT7=
EXTT8=
EXTT9=
PLAYORDER=
